<?xml version="1.0" encoding="utf-8"?>
<svg aria-hidden="true" focusable="false" data-prefix="fab" data-icon="discord" class="svg-inline--fa fa-discord fa-w-14" role="img" viewBox="0 0 448 512" xmlns="http://www.w3.org/2000/svg">
  <path fill="#2E848A" d="M 297.62 275.983 C 297.62 291.599 286.1 304.399 271.508 304.399 C 257.172 304.399 245.396 291.599 245.396 275.983 C 245.396 260.367 256.916 247.567 271.508 247.567 C 286.1 247.567 297.62 260.367 297.62 275.983 Z M 178.068 247.567 C 163.476 247.567 151.956 260.367 151.956 275.983 C 151.956 283.598 155.223 301.862 177.098 301.993 C 196.492 302.109 204.209 283.984 204.18 275.983 C 204.123 260.365 192.66 247.567 178.068 247.567 Z M 448.404 85.519 C 448.404 85.519 448.251 298.32 447.995 419.542 C 447.917 456.504 422.245 481.604 385.507 482.579 L 52.884 484.367 C 23.956 484.367 0.404 460.815 0.404 431.631 L 0.404 85.519 C 0.404 56.335 23.956 32.783 52.884 32.783 L 395.924 32.783 C 424.852 32.783 448.404 56.335 448.404 85.519 Z M 375.444 328.207 C 375.444 245.775 338.58 178.959 338.58 178.959 C 301.716 151.311 266.644 152.079 266.644 152.079 L 263.06 156.175 C 306.58 169.487 326.804 188.687 326.804 188.687 C 265.993 155.358 194.56 155.352 135.572 181.263 C 126.1 185.615 120.468 188.687 120.468 188.687 C 120.468 188.687 141.716 168.463 187.796 155.151 L 185.236 152.079 C 185.236 152.079 150.164 151.311 113.3 178.959 C 113.3 178.959 76.436 245.775 76.436 328.207 C 76.436 328.207 97.94 365.327 154.516 367.119 C 154.516 367.119 163.988 355.599 171.668 345.871 C 139.156 336.143 126.868 315.663 126.868 315.663 C 130.634 318.299 136.844 321.716 137.364 322.063 C 180.574 346.261 241.952 354.189 297.108 331.023 C 306.068 327.695 316.052 322.831 326.548 315.919 C 326.548 315.919 313.748 336.911 280.212 346.383 C 287.892 356.111 297.108 367.119 297.108 367.119 C 353.684 365.327 375.444 328.207 375.444 328.207 Z"/>
</svg>