<?xml version="1.0" encoding="utf-8"?>
<svg aria-hidden="true" focusable="false" data-prefix="fab" data-icon="discord" class="svg-inline--fa fa-discord fa-w-14" role="img" viewBox="0 0 448 512" xmlns="http://www.w3.org/2000/svg">
  <path fill="#2E848A" d="M 297.216 243.2 C 297.216 258.816 285.696 271.616 271.104 271.616 C 256.768 271.616 244.992 258.816 244.992 243.2 C 244.992 227.584 256.512 214.784 271.104 214.784 C 285.696 214.784 297.216 227.584 297.216 243.2 Z M 177.664 214.784 C 163.072 214.784 151.552 227.584 151.552 243.2 C 151.552 250.815 154.819 269.079 176.694 269.21 C 196.088 269.326 203.805 251.201 203.776 243.2 C 203.719 227.582 192.256 214.784 177.664 214.784 Z M 448 52.736 C 448 52.736 447.847 265.537 447.591 386.759 C 447.513 423.721 421.841 448.821 385.103 449.796 L 52.48 451.584 C 23.552 451.584 0 428.032 0 398.848 L 0 52.736 C 0 23.552 23.552 0 52.48 0 L 395.52 0 C 424.448 0 448 23.552 448 52.736 Z M 375.04 295.424 C 375.04 212.992 338.176 146.176 338.176 146.176 C 301.312 118.528 266.24 119.296 266.24 119.296 L 262.656 123.392 C 306.176 136.704 326.4 155.904 326.4 155.904 C 265.589 122.575 194.156 122.569 135.168 148.48 C 125.696 152.832 120.064 155.904 120.064 155.904 C 120.064 155.904 141.312 135.68 187.392 122.368 L 184.832 119.296 C 184.832 119.296 149.76 118.528 112.896 146.176 C 112.896 146.176 76.032 212.992 76.032 295.424 C 76.032 295.424 97.536 332.544 154.112 334.336 C 154.112 334.336 163.584 322.816 171.264 313.088 C 138.752 303.36 126.464 282.88 126.464 282.88 C 130.23 285.516 136.44 288.933 136.96 289.28 C 180.17 313.478 241.548 321.406 296.704 298.24 C 305.664 294.912 315.648 290.048 326.144 283.136 C 326.144 283.136 313.344 304.128 279.808 313.6 C 287.488 323.328 296.704 334.336 296.704 334.336 C 353.28 332.544 375.04 295.424 375.04 295.424 Z"/>
</svg>